<svg xmlns="http://www.w3.org/2000/svg" xmlns:xlink="http://www.w3.org/1999/xlink" width="1080" zoomAndPan="magnify" viewBox="0 0 810 809.999993" height="1080" preserveAspectRatio="xMidYMid meet" version="1.0"><defs><g/><clipPath id="e01a264aed"><rect x="0" width="810" y="0" height="810"/></clipPath></defs><g transform="matrix(1, 0, 0, 1, 0, 0.000000000000039746)"><g clip-path="url(#e01a264aed)"><g fill="#ffffff" fill-opacity="1"><g transform="translate(25.814208, 501.399279)"><g><path d="M 488.609375 -194.359375 C 522.148438 -173.242188 546.988281 -146.988281 563.125 -115.59375 C 579.257812 -84.207031 585.753906 -50.144531 582.609375 -13.40625 C 579.460938 23.320312 566.628906 59.570312 544.109375 95.34375 C 521.859375 130.664062 495.101562 157.53125 463.84375 175.9375 C 432.582031 194.34375 399.492188 203.007812 364.578125 201.9375 C 329.660156 200.875 295.4375 189.785156 261.90625 168.671875 C 233.726562 150.929688 212.359375 129.820312 197.796875 105.34375 C 183.234375 80.875 176.085938 54.050781 176.359375 24.875 L 137.5 86.578125 L 60.359375 38 L 373.734375 -459.65625 L 450.875 -411.078125 L 323.328125 -208.53125 C 349.523438 -221.375 376.691406 -226.585938 404.828125 -224.171875 C 432.960938 -221.753906 460.890625 -211.816406 488.609375 -194.359375 Z M 285.859375 91.953125 C 306.867188 105.179688 328.738281 112.085938 351.46875 112.671875 C 374.207031 113.265625 395.789062 107.503906 416.21875 95.390625 C 436.65625 83.273438 453.914062 66.035156 468 43.671875 C 481.789062 21.765625 489.59375 -0.789062 491.40625 -24 C 493.21875 -47.207031 489.019531 -69.050781 478.8125 -89.53125 C 468.601562 -110.019531 452.992188 -126.878906 431.984375 -140.109375 C 410.960938 -153.335938 389.082031 -160.242188 366.34375 -160.828125 C 343.613281 -161.410156 322.101562 -155.753906 301.8125 -143.859375 C 281.519531 -131.972656 264.476562 -115.078125 250.6875 -93.171875 C 229.007812 -58.742188 221.515625 -24.28125 228.203125 10.21875 C 234.890625 44.71875 254.109375 71.960938 285.859375 91.953125 Z M 285.859375 91.953125 "/></g></g></g></g></g><path stroke-linecap="butt" transform="matrix(0.75, 0, 0, 0.75, -16.289937, 694.093353)" fill="none" stroke-linejoin="miter" d="M 0.00116616 10.00053 L 1101.719972 10.00053 " stroke="#ffffff" stroke-width="20" stroke-opacity="1" stroke-miterlimit="4"/></svg>